<?xml version="1.0" standalone="no"?>
<!DOCTYPE svg PUBLIC "-//W3C//DTD SVG 20010904//EN"
 "http://www.w3.org/TR/2001/REC-SVG-20010904/DTD/svg10.dtd">
<svg version="1.0" xmlns="http://www.w3.org/2000/svg"
 width="500" height="300"
 preserveAspectRatio="xMidYMid meet">

<g transform="translate(0.000000,220.000000) scale(0.100000,-0.100000)"
fill="#555add" stroke="none">
<path d="M780 1055 c0 -8 5 -15 10 -15 6 0 10 7 10 15 0 8 -4 15 -10 15 -5 0
-10 -7 -10 -15z"/>
<path d="M840 1054 c0 -9 5 -14 12 -12 18 6 21 28 4 28 -9 0 -16 -7 -16 -16z"/>
<path d="M712 1049 c2 -6 8 -10 13 -10 5 0 11 4 13 10 2 6 -4 11 -13 11 -9 0
-15 -5 -13 -11z"/>
<path d="M900 1040 c0 -5 7 -10 15 -10 8 0 15 5 15 10 0 6 -7 10 -15 10 -8 0
-15 -4 -15 -10z"/>
<path d="M657 1034 c-8 -8 1 -24 14 -24 5 0 9 7 9 15 0 15 -12 20 -23 9z"/>
<path d="M607 994 c-8 -8 1 -24 14 -24 5 0 9 7 9 15 0 15 -12 20 -23 9z"/>
<path d="M1740 830 c0 -148 1 -161 18 -158 15 3 17 19 17 158 0 139 -2 155
-17 158 -17 3 -18 -10 -18 -158z"/>
<path d="M847 963 c-30 -8 -37 -47 -37 -217 0 -205 -7 -196 151 -196 76 0 119
4 127 12 8 8 12 66 12 194 0 153 -3 185 -16 198 -12 13 -37 16 -117 15 -56 -1
-110 -3 -120 -6z m221 -161 l3 -133 -113 3 -113 3 -3 110 c-4 166 -12 156 116
153 l107 -3 3 -133z m2 -191 c0 -16 -4 -31 -10 -33 -5 -1 -55 -2 -110 0 -104
3 -120 11 -106 47 4 12 27 15 116 15 l110 0 0 -29z"/>
<path d="M920 611 c0 -14 37 -23 60 -16 34 11 22 25 -20 25 -22 0 -40 -4 -40
-9z"/>
<path d="M1330 940 c0 -18 -6 -33 -15 -36 -8 -4 -15 -12 -15 -20 0 -8 7 -14
15 -14 12 0 15 -16 15 -88 0 -94 8 -112 47 -112 28 0 29 10 3 33 -17 14 -20
29 -20 88 0 62 2 71 20 76 11 3 20 11 20 18 0 7 -9 15 -20 18 -15 4 -20 14
-20 36 0 21 -5 31 -15 31 -10 0 -15 -10 -15 -30z"/>
<path d="M2410 940 c0 -18 -6 -33 -15 -36 -8 -4 -15 -12 -15 -20 0 -8 7 -14
15 -14 12 0 15 -16 15 -88 0 -93 8 -112 46 -112 31 0 41 20 15 27 -19 5 -21
12 -21 88 0 76 2 83 21 88 22 6 18 27 -6 27 -8 0 -15 13 -17 32 -4 46 -38 53
-38 8z"/>
<path d="M3077 963 c-4 -3 -7 -19 -7 -34 0 -16 -7 -29 -17 -34 -17 -6 -17 -7
0 -19 14 -11 17 -28 17 -90 0 -93 10 -116 50 -116 34 0 39 14 10 30 -17 9 -20
21 -20 90 0 73 2 80 20 80 11 0 20 7 20 15 0 8 -9 15 -20 15 -16 0 -20 7 -20
35 0 33 -16 46 -33 28z"/>
<path d="M562 939 c2 -6 8 -10 13 -10 5 0 11 4 13 10 2 6 -4 11 -13 11 -9 0
-15 -5 -13 -11z"/>
<path d="M1520 903 c-26 -10 -50 -36 -50 -55 0 -25 12 -23 40 7 26 28 57 32
84 12 35 -25 16 -50 -48 -63 -32 -6 -65 -19 -74 -27 -21 -22 -20 -77 3 -93 24
-17 88 -18 116 -1 17 10 23 10 26 0 5 -15 53 -18 53 -3 0 6 -4 10 -10 10 -6 0
-10 28 -10 64 0 102 -8 126 -46 142 -35 14 -58 16 -84 7z m90 -145 c0 -29 -9
-42 -38 -57 -31 -16 -69 -6 -77 20 -9 26 4 39 47 49 58 14 68 12 68 -12z"/>
<path d="M1913 900 c-36 -15 -63 -68 -63 -123 0 -40 5 -54 29 -78 30 -29 41
-33 96 -29 32 2 75 35 75 57 0 20 -26 16 -41 -7 -22 -31 -72 -37 -98 -11 -12
12 -21 30 -21 41 0 18 7 20 85 20 79 0 85 1 85 20 0 28 -24 82 -43 98 -21 17
-77 24 -104 12z m91 -52 c29 -41 21 -48 -49 -48 -70 0 -78 7 -49 48 10 15 25
22 49 22 24 0 39 -7 49 -22z"/>
<path d="M2198 896 c-16 -9 -30 -11 -33 -5 -4 5 -13 9 -21 9 -11 0 -14 -22
-14 -115 0 -108 1 -115 20 -115 18 0 20 7 20 84 0 94 11 116 59 116 44 0 51
-16 51 -112 0 -81 2 -88 20 -88 18 0 20 7 20 79 0 94 -12 134 -46 150 -32 14
-43 14 -76 -3z"/>
<path d="M2593 900 c-29 -12 -49 -48 -34 -63 7 -7 17 -3 31 16 23 29 56 35 84
14 35 -26 16 -50 -48 -63 -64 -13 -86 -32 -86 -73 0 -36 11 -50 49 -61 25 -7
43 -5 69 6 24 10 39 11 46 4 13 -13 46 -13 46 0 0 6 -4 10 -9 10 -5 0 -11 40
-13 90 -2 62 -8 94 -18 104 -19 19 -88 29 -117 16z m97 -141 c0 -32 -17 -56
-46 -63 -34 -9 -61 0 -67 23 -7 27 6 42 44 51 57 13 69 12 69 -11z"/>
<path d="M2863 900 c-31 -13 -56 -55 -48 -80 6 -20 37 -38 99 -56 42 -13 57
-41 32 -60 -29 -21 -64 -17 -92 11 -30 30 -44 32 -44 6 0 -48 113 -71 160 -33
37 30 26 93 -18 106 -10 3 -36 10 -59 16 -51 13 -60 44 -18 60 27 10 75 -2 75
-20 0 -5 9 -10 20 -10 26 0 25 12 -3 38 -27 25 -73 35 -104 22z"/>
<path d="M3253 890 c-59 -36 -68 -142 -16 -194 21 -21 35 -26 79 -26 45 0 56
4 73 26 12 15 21 31 21 35 0 17 -30 9 -54 -16 -32 -32 -60 -32 -91 0 -46 45
-35 55 60 55 l85 0 0 30 c0 42 -20 79 -51 96 -38 19 -68 18 -106 -6z m101 -36
c9 -8 16 -24 16 -35 0 -17 -7 -19 -65 -19 -36 0 -65 3 -65 6 0 11 23 49 34 56
19 13 64 9 80 -8z"/>
<path d="M3560 895 c-14 -17 -40 -20 -40 -5 0 6 -7 10 -15 10 -12 0 -15 -20
-15 -116 0 -105 2 -115 18 -112 14 3 18 18 22 88 5 84 5 85 37 100 18 8 33 23
33 33 0 21 -23 22 -40 2z"/>
<path d="M470 891 c0 -5 16 -21 36 -36 64 -49 89 -143 59 -217 -5 -13 -2 -18
9 -18 20 0 40 73 31 119 -10 51 -40 105 -75 135 -31 26 -60 34 -60 17z"/>
<path d="M347 873 c-7 -10 119 -503 131 -515 14 -14 515 -5 519 9 4 10 -53 13
-249 15 l-253 3 -62 239 c-59 227 -74 269 -86 249z"/>
<path d="M440 816 c0 -8 7 -16 14 -19 27 -11 49 -67 42 -109 -4 -23 -2 -38 4
-38 19 0 33 47 26 86 -10 53 -86 124 -86 80z"/>
<path d="M1302 478 c3 -48 5 -53 28 -56 42 -4 51 9 44 61 -7 46 -8 47 -41 47
l-34 0 3 -52z m56 24 c3 -9 -3 -13 -19 -10 -12 1 -24 9 -27 16 -3 9 3 13 19
10 12 -1 24 -9 27 -16z m2 -47 c0 -15 -43 -12 -48 3 -3 10 4 13 22 10 15 -2
26 -7 26 -13z"/>
<path d="M1752 513 c-4 -10 -6 -34 -3 -53 6 -35 6 -35 17 18 10 51 3 69 -14
35z"/>
<path d="M3287 514 c-7 -7 3 -76 13 -87 3 -4 5 13 4 39 -3 47 -6 58 -17 48z"/>
<path d="M2259 504 c-3 -24 4 -70 11 -78 5 -5 7 10 5 33 -2 38 -13 68 -16 45z"/>
<path d="M1477 494 c-22 -22 1 -74 33 -74 12 1 12 2 -2 11 -26 15 -22 29 8 29
19 0 25 5 22 18 -3 17 -48 29 -61 16z m43 -14 c0 -5 -7 -10 -15 -10 -8 0 -15
5 -15 10 0 6 7 10 15 10 8 0 15 -4 15 -10z"/>
<path d="M1860 466 c0 -19 5 -38 10 -41 6 -4 10 6 10 24 0 18 7 34 18 40 14 9
13 10 -10 11 -25 0 -28 -3 -28 -34z"/>
<path d="M1990 473 c0 -35 13 -48 48 -48 19 -1 22 4 22 37 0 46 -18 51 -22 6
-4 -39 -22 -44 -26 -8 -6 39 -22 49 -22 13z"/>
<path d="M2150 466 c0 -19 5 -38 10 -41 6 -4 10 10 10 34 0 23 -4 41 -10 41
-5 0 -10 -15 -10 -34z"/>
<path d="M2377 494 c-22 -22 1 -74 33 -74 12 1 12 2 -2 11 -26 15 -22 29 8 29
19 0 25 5 22 18 -3 17 -48 29 -61 16z m43 -14 c0 -5 -7 -10 -15 -10 -8 0 -15
5 -15 10 0 6 7 10 15 10 8 0 15 -4 15 -10z"/>
<path d="M2531 463 c1 -38 1 -38 9 -9 5 16 15 33 22 37 9 6 6 9 -9 9 -20 0
-23 -5 -22 -37z"/>
<path d="M2777 494 c-10 -11 -9 -64 2 -64 5 0 11 12 13 27 4 35 28 43 28 9 0
-34 18 -43 22 -9 4 35 28 43 28 9 0 -13 5 -28 11 -31 7 -5 9 5 7 26 -3 33 -4
34 -53 37 -28 2 -54 0 -58 -4z"/>
<path d="M3008 493 c28 -5 29 -23 2 -23 -23 0 -38 -26 -23 -41 6 -6 22 -7 36
-4 25 7 27 12 18 68 0 4 -13 6 -28 6 -24 -2 -25 -2 -5 -6z m14 -55 c-12 -12
-35 -1 -27 12 3 5 13 6 21 3 10 -4 12 -9 6 -15z"/>
<path d="M3140 485 c0 -8 9 -19 20 -25 27 -14 26 -34 -1 -27 -15 4 -19 3 -11
-5 13 -13 52 -1 52 17 0 8 -9 17 -20 20 -25 8 -26 22 -2 28 10 3 6 5 -10 6
-19 1 -28 -4 -28 -14z"/>
<path d="M3407 494 c-4 -4 -7 -20 -7 -35 0 -19 6 -30 21 -34 11 -4 23 -5 26
-2 2 3 -5 8 -16 12 -27 8 -17 25 15 25 19 0 25 5 22 18 -3 17 -48 29 -61 16z
m43 -14 c0 -5 -9 -10 -21 -10 -11 0 -17 5 -14 10 3 6 13 10 21 10 8 0 14 -4
14 -10z"/>
<path d="M3561 458 c2 -34 3 -37 6 -13 2 17 12 36 21 43 14 11 13 12 -6 12
-19 0 -22 -5 -21 -42z"/>
</g>
</svg>
